<?xml version="1.0" encoding="UTF-8"?>
<svg id="Layer_1" xmlns="http://www.w3.org/2000/svg" version="1.1" viewBox="0 0 454.7 109.5">
  <!-- Generator: Adobe Illustrator 29.0.1, SVG Export Plug-In . SVG Version: 2.1.0 Build 192)  -->
  <defs>
    <style>
      .st0 {
        fill: #ff6f61;
      }

      .st1 {
        isolation: isolate;
      }

      .st2 {
        fill: #2b8a3e;
      }

      .st3 {
        fill: #333;
      }
    </style>
  </defs>
  <g class="st1">
    <g class="st1">
      <path class="st2" d="M9.1,48.3v-9.1h8.2v-3.8c0-4.4,1.4-8,4.1-10.8,2.8-2.8,6.9-4.2,12.5-4.2s2.4,0,3.6.1c1.2,0,2.4.2,3.6.2v10.2c-1.6-.2-3.3-.3-5-.3s-3.2.4-4,1.3c-.8.9-1.2,2.3-1.2,4.4v3h9.4v9.1h-9.4v40.5h-13.6v-40.5h-8.2Z"/>
      <path class="st2" d="M57.3,39.2v9.2h.2c.6-1.5,1.5-3,2.6-4.3,1.1-1.3,2.3-2.4,3.7-3.4,1.4-.9,2.9-1.6,4.5-2.2,1.6-.5,3.3-.8,5-.8s1.9.2,3,.5v12.7c-.6-.1-1.4-.2-2.3-.3-.9,0-1.8-.1-2.6-.1-2.5,0-4.6.4-6.3,1.2-1.7.8-3.1,2-4.2,3.4-1.1,1.4-1.8,3.1-2.3,5-.4,1.9-.7,4-.7,6.2v22.4h-13.6v-49.6h13Z"/>
      <path class="st2" d="M92.6,76.9c2,2,5,3,8.8,3s5.1-.7,7.1-2.1c2-1.4,3.2-2.8,3.6-4.4h12c-1.9,6-4.9,10.2-8.8,12.8-4,2.6-8.8,3.8-14.4,3.8s-7.4-.6-10.6-1.9c-3.1-1.2-5.8-3-8-5.3-2.2-2.3-3.9-5.1-5-8.3-1.2-3.2-1.8-6.7-1.8-10.6s.6-7.2,1.8-10.4c1.2-3.2,2.9-6,5.2-8.3,2.2-2.3,4.9-4.2,8-5.5,3.1-1.3,6.5-2,10.3-2s7.9.8,11,2.4c3.1,1.6,5.7,3.8,7.7,6.6,2,2.8,3.5,5.9,4.4,9.4.9,3.5,1.2,7.2,1,11h-35.8c.2,4.4,1.3,7.6,3.4,9.6ZM108,50.8c-1.6-1.8-4.1-2.7-7.4-2.7s-4,.4-5.4,1.1c-1.4.7-2.6,1.6-3.5,2.7-.9,1.1-1.5,2.2-1.8,3.5-.4,1.2-.6,2.3-.6,3.3h22.2c-.6-3.5-1.8-6.1-3.4-7.9Z"/>
      <path class="st2" d="M145.8,76.9c2,2,5,3,8.8,3s5.1-.7,7.1-2.1c2-1.4,3.2-2.8,3.6-4.4h12c-1.9,6-4.9,10.2-8.8,12.8-4,2.6-8.8,3.8-14.4,3.8s-7.4-.6-10.6-1.9c-3.1-1.2-5.8-3-8-5.3-2.2-2.3-3.9-5.1-5-8.3-1.2-3.2-1.8-6.7-1.8-10.6s.6-7.2,1.8-10.4c1.2-3.2,2.9-6,5.2-8.3,2.2-2.3,4.9-4.2,8-5.5,3.1-1.3,6.5-2,10.3-2s7.9.8,11,2.4c3.1,1.6,5.7,3.8,7.7,6.6,2,2.8,3.5,5.9,4.4,9.4.9,3.5,1.2,7.2,1,11h-35.8c.2,4.4,1.3,7.6,3.4,9.6ZM161.2,50.8c-1.6-1.8-4.1-2.7-7.4-2.7s-4,.4-5.4,1.1c-1.4.7-2.6,1.6-3.5,2.7-.9,1.1-1.5,2.2-1.8,3.5-.4,1.2-.6,2.3-.6,3.3h22.2c-.6-3.5-1.8-6.1-3.4-7.9Z"/>
    </g>
    <path class="st0" d="M177.9,33v-12.7h56.2v12.7h-20.5v55.9h-15.1v-55.9h-20.5Z"/>
    <g>
      <path class="st0" d="M254.8,20.3v55.9h33.4v12.7h-48.5V20.3h15.1Z"/>
      <path class="st0" d="M294,40.6c1.5-4.4,3.7-8.2,6.6-11.5,2.9-3.3,6.4-5.8,10.6-7.7,4.2-1.9,8.9-2.8,14.2-2.8s10,.9,14.2,2.8c4.2,1.9,7.7,4.4,10.6,7.7,2.9,3.3,5.1,7.1,6.6,11.5,1.5,4.4,2.3,9.1,2.3,14.3s-.8,9.6-2.3,14c-1.5,4.3-3.7,8.1-6.6,11.3-2.9,3.2-6.4,5.7-10.6,7.5-4.2,1.8-8.9,2.7-14.2,2.7s-10-.9-14.2-2.7c-4.2-1.8-7.7-4.3-10.6-7.5-2.9-3.2-5.1-7-6.6-11.3-1.5-4.3-2.3-9-2.3-14s.8-9.9,2.3-14.3ZM307.8,63.2c.7,2.7,1.7,5.2,3.2,7.3,1.5,2.2,3.4,3.9,5.8,5.2,2.4,1.3,5.2,2,8.6,2s6.3-.7,8.6-2c2.4-1.3,4.3-3.1,5.8-5.2,1.5-2.2,2.5-4.6,3.2-7.3.7-2.7,1-5.5,1-8.4s-.3-5.9-1-8.7c-.7-2.8-1.7-5.3-3.2-7.5-1.5-2.2-3.4-4-5.8-5.3-2.4-1.3-5.2-2-8.6-2s-6.3.7-8.6,2c-2.4,1.3-4.3,3.1-5.8,5.3-1.5,2.2-2.5,4.7-3.2,7.5-.7,2.8-1,5.7-1,8.7s.3,5.7,1,8.4Z"/>
    </g>
    <g>
      <path class="st3" d="M367.8,84.2v6.2h-6.3v-6.2h6.3Z"/>
      <path class="st3" d="M380.3,73.4c-.9,0-1.7.2-2.3.6-.6.4-1.1.9-1.5,1.6-.4.7-.7,1.4-.8,2.2-.2.8-.2,1.6-.2,2.3s0,1.5.2,2.3.4,1.5.8,2.1c.4.6.8,1.1,1.5,1.5.6.4,1.4.6,2.2.6,1.4,0,2.4-.4,3.1-1.1.7-.8,1.2-1.8,1.4-3.1h5.5c-.4,2.7-1.4,4.8-3.2,6.3-1.8,1.4-4,2.2-6.8,2.2s-3-.3-4.3-.8c-1.3-.5-2.4-1.2-3.3-2.2-.9-.9-1.6-2-2.1-3.3-.5-1.3-.8-2.7-.8-4.3s.2-3.1.7-4.5c.5-1.4,1.2-2.6,2.1-3.6s2-1.8,3.3-2.3c1.3-.6,2.8-.8,4.5-.8s2.4.2,3.5.5c1.1.3,2.1.8,3,1.5.9.7,1.6,1.5,2.2,2.4.6,1,.9,2.1,1,3.5h-5.6c-.4-2.4-1.8-3.6-4.2-3.6Z"/>
      <path class="st3" d="M391.5,75.5c.5-1.3,1.2-2.5,2.2-3.4.9-.9,2.1-1.7,3.4-2.2,1.3-.5,2.8-.8,4.4-.8s3.1.3,4.4.8c1.3.5,2.4,1.3,3.4,2.2s1.7,2.1,2.2,3.4c.5,1.3.8,2.8.8,4.5s-.3,3.1-.8,4.5c-.5,1.3-1.2,2.5-2.2,3.4-.9.9-2.1,1.7-3.4,2.2-1.3.5-2.8.8-4.4.8s-3.1-.3-4.4-.8c-1.3-.5-2.4-1.2-3.4-2.2-.9-.9-1.7-2.1-2.2-3.4-.5-1.3-.8-2.8-.8-4.5s.3-3.2.8-4.5ZM396.7,82.5c.2.8.4,1.5.8,2.1.4.6.9,1.1,1.5,1.5.6.4,1.4.6,2.4.6s1.8-.2,2.4-.6c.7-.4,1.2-.9,1.6-1.5.4-.6.7-1.3.8-2.1.2-.8.2-1.6.2-2.4s0-1.6-.2-2.4-.4-1.5-.8-2.1c-.4-.6-.9-1.1-1.6-1.5s-1.5-.6-2.4-.6-1.8.2-2.4.6c-.6.4-1.2.9-1.5,1.5s-.7,1.3-.8,2.1-.2,1.6-.2,2.4,0,1.6.2,2.4Z"/>
      <path class="st3" d="M419.3,69.7v2.8h0c.7-1.1,1.6-1.9,2.7-2.5,1.1-.6,2.3-.9,3.6-.9s2.5.3,3.6.8c1.1.5,1.9,1.4,2.5,2.7.6-.9,1.4-1.7,2.5-2.4,1.1-.7,2.3-1,3.7-1s2.1.1,3,.4,1.7.7,2.4,1.3c.7.6,1.2,1.4,1.6,2.3s.6,2.1.6,3.4v13.8h-5.7v-11.7c0-.7,0-1.3,0-2,0-.6-.2-1.1-.4-1.6-.2-.5-.6-.8-1.1-1.1-.5-.3-1.1-.4-1.9-.4s-1.4.2-1.9.5-.9.7-1.2,1.2c-.3.5-.5,1.1-.6,1.7,0,.6-.1,1.3-.1,1.9v11.5h-5.7v-11.6c0-.6,0-1.2,0-1.8,0-.6-.1-1.2-.3-1.7-.2-.5-.5-.9-1-1.2s-1.2-.5-2.1-.5-.6,0-1.1.2c-.4.1-.9.3-1.3.7-.4.3-.8.8-1.1,1.4-.3.6-.4,1.4-.4,2.5v12h-5.7v-20.7h5.4Z"/>
    </g>
  </g>
</svg>